<svg width="321" height="216" xmlns="http://www.w3.org/2000/svg" xmlns:xlink="http://www.w3.org/1999/xlink" xml:space="preserve" overflow="hidden"><g transform="translate(-378 -320)"><path d="M914.445 1711.55C914.445 1703.36 921.087 1696.71 929.281 1696.71 937.476 1696.71 944.118 1703.36 944.118 1711.55 944.118 1719.75 937.476 1726.39 929.281 1726.39 921.087 1726.39 914.445 1719.75 914.445 1711.55Z" stroke="#0E2844" stroke-width="5.39496" stroke-miterlimit="8" fill="#A40037" fill-rule="evenodd" transform="matrix(1 0 0 1.00093 -495.983 -1375.6)"/><path d="M876.681 1807.31 1176.1 1807.31 1176.1 1896.33 876.681 1896.33Z" stroke="#0E2844" stroke-width="5.39496" stroke-miterlimit="8" fill="#BEDB6B" transform="matrix(1 0 0 1.00093 -495.983 -1375.6)"/><path d="M956.256 1831.59C956.256 1820.42 965.314 1811.36 976.487 1811.36 987.66 1811.36 996.719 1820.42 996.719 1831.59 996.719 1842.76 987.66 1851.82 976.487 1851.82 965.314 1851.82 956.256 1842.76 956.256 1831.59Z" stroke="#0E2844" stroke-width="3.59663" stroke-miterlimit="8" fill="#17A1B8" fill-rule="evenodd" transform="matrix(1 0 0 1.00093 -495.983 -1375.6)"/><path d="M903.655 1781.68C903.655 1767.53 915.128 1756.06 929.281 1756.06 943.435 1756.06 954.908 1767.53 954.908 1781.68 954.908 1795.84 943.435 1807.31 929.281 1807.31 915.128 1807.31 903.655 1795.84 903.655 1781.68Z" stroke="#0E2844" stroke-width="5.39496" stroke-miterlimit="8" fill="#C6C6C6" fill-rule="evenodd" transform="matrix(1 0 0 1.00093 -495.983 -1375.6)"/><path d="M914.445 1738.53C914.445 1730.33 921.087 1723.69 929.281 1723.69 937.476 1723.69 944.118 1730.33 944.118 1738.53 944.118 1746.72 937.476 1753.36 929.281 1753.36 921.087 1753.36 914.445 1746.72 914.445 1738.53Z" stroke="#0E2844" stroke-width="5.39496" stroke-miterlimit="8" fill="#1B2024" fill-rule="evenodd" transform="matrix(1 0 0 1.00093 -495.983 -1375.6)"/><text fill="#1B2024" font-family="Arial,Arial_MSFontService,sans-serif" font-weight="400" font-size="13" transform="matrix(2.69748 0 0 2.7 584.247 504)">CeO</text><text fill="#1B2024" font-family="Arial,Arial_MSFontService,sans-serif" font-weight="400" font-size="9" transform="matrix(2.69748 0 0 2.7 657.979 509)">2</text><text fill="#FFFFFF" font-family="Arial,Arial_MSFontService,sans-serif" font-weight="400" font-size="13" transform="matrix(2.69748 0 0 2.7 464.379 469)">M</text><path d="M937.975 1805.94 938.938 1791.17 953.707 1792.14 949.774 1795.59 962.949 1810.59 966.882 1807.14 965.919 1821.91 951.15 1820.95 955.083 1817.5 941.908 1802.49Z" stroke="#0E2844" stroke-width="2.69748" stroke-miterlimit="8" fill="#FFBAD1" fill-rule="evenodd" transform="matrix(1 0 0 1.00093 -495.983 -1375.6)"/><path d="M921.189 1745.27 930.63 1735.83 940.071 1745.27 935.351 1745.27 935.351 1766.85 940.071 1766.85 930.63 1776.29 921.189 1766.85 925.91 1766.85 925.91 1745.27Z" stroke="#FFFFFF" stroke-width="2.69748" stroke-miterlimit="8" fill="#FFBAD1" fill-rule="evenodd" transform="matrix(1 0 0 1.00093 -495.983 -1375.6)"/></g></svg>